<svg xmlns="http://www.w3.org/2000/svg" viewBox="0 0 512 512">
  <!-- Background -->
  <rect width="512" height="512" rx="102" fill="#FF6B35"/>
  
  <!-- Paint Palette -->
  <g transform="translate(256, 256)">
    <!-- Palette shape -->
    <path d="M-140 -60 C-140 -120, -100 -160, -40 -160 L40 -160 C100 -160, 140 -120, 140 -60 C140 0, 140 40, 100 80 C60 120, 0 140, -60 140 C-120 140, -160 100, -160 40 C-160 -20, -160 -60, -140 -60 Z" 
          fill="#FFFFFF" 
          opacity="0.95"/>
    
    <!-- Thumb hole -->
    <circle cx="60" cy="-20" r="35" fill="#FF6B35"/>
    
    <!-- Paint dots -->
    <!-- Red paint -->
    <circle cx="-80" cy="-80" r="25" fill="#E74C3C" opacity="0.9"/>
    <!-- Blue paint -->
    <circle cx="-20" cy="-90" r="25" fill="#3498DB" opacity="0.9"/>
    <!-- Yellow paint -->
    <circle cx="40" cy="-80" r="25" fill="#F1C40F" opacity="0.9"/>
    <!-- Green paint -->
    <circle cx="-90" cy="-20" r="25" fill="#27AE60" opacity="0.9"/>
    <!-- Purple paint -->
    <circle cx="-40" cy="-30" r="25" fill="#9B59B6" opacity="0.9"/>
    <!-- Orange paint (brand color) -->
    <circle cx="20" cy="-30" r="25" fill="#FF6B35" opacity="0.9"/>
  </g>
</svg>